<?xml version="1.0" encoding="utf-8" ?>
<svg baseProfile="tiny" height="256" version="1.2" width="1220" xmlns="http://www.w3.org/2000/svg" xmlns:ev="http://www.w3.org/2001/xml-events" xmlns:xlink="http://www.w3.org/1999/xlink"><defs /><path d="M 36.89099884033203 157.80799865722656 L 36.276756286621094 156.87969970703125 L 35.675140380859375 155.9413299560547 L 35.08631134033203 154.9929656982422 L 34.51044464111328 154.03466796875 L 33.94770050048828 153.0664825439453 L 33.398250579833984 152.0885009765625 L 32.86225509643555 151.1007537841797 L 32.33988952636719 150.10333251953125 L 31.83131217956543 149.09628295898438 L 31.336694717407227 148.0796661376953 L 30.856201171875 147.05355834960938 L 30.389999389648438 146.01800537109375 L 30.012439727783203 145.1427459716797 L 29.6483154296875 144.2586212158203 L 29.29759407043457 143.3659210205078 L 28.960241317749023 142.46495056152344 L 28.6362247467041 141.55601501464844 L 28.325510025024414 140.639404296875 L 28.02806282043457 139.71542358398438 L 27.74384880065918 138.78436279296875 L 27.472837448120117 137.84652709960938 L 27.214990615844727 136.90220642089844 L 26.970277786254883 135.95169067382812 L 26.738664627075195 134.9953155517578 L 26.520116806030273 134.03334045410156 L 26.31460189819336 133.0660858154297 L 26.12208366394043 132.09384155273438 L 25.942529678344727 131.1168975830078 L 25.77590560913086 130.1355743408203 L 25.62217903137207 129.15016174316406 L 25.48131561279297 128.1609344482422 L 25.353282928466797 127.16822814941406 L 25.23804473876953 126.17232513427734 L 25.13556671142578 125.17351531982422 L 25.045820236206055 124.17210388183594 L 24.968765258789062 123.16839599609375 L 24.904373168945312 122.16268157958984 L 24.85260581970215 121.15525817871094 L 24.813434600830078 120.14642333984375 L 24.786819458007812 119.13648986816406 L 24.772733688354492 118.12574005126953 L 24.771137237548828 117.1144790649414 L 24.781999588012695 116.10299682617188 L 24.805286407470703 115.09160614013672 L 24.840965270996094 114.08059692382812 L 24.888999938964844 113.07026672363281 L 24.949359893798828 112.06092071533203 L 25.02200698852539 111.05284881591797 L 25.106910705566406 110.04635620117188 L 25.204036712646484 109.04173278808594 L 25.313352584838867 108.03929138183594 L 25.43482208251953 107.03931427001953 L 25.56841278076172 106.04210662841797 L 25.714088439941406 105.04796600341797 L 25.8718204498291 104.05719757080078 L 26.04157066345215 103.0700912475586 L 26.22330665588379 102.08694458007812 L 26.416996002197266 101.10806274414062 L 26.622604370117188 100.13374328613281 L 26.84009552001953 99.16427612304688 L 27.069438934326172 98.19996643066406 L 27.31060028076172 97.24111938476562 L 27.56354522705078 96.28801727294922 L 27.82823944091797 95.34097290039062 L 28.10464859008789 94.40027618408203 L 28.392742156982422 93.46622467041016 L 28.692481994628906 92.53912353515625 L 29.00383949279785 91.61927032470703 L 29.3267765045166 90.70696258544922 L 29.6612606048584 89.802490234375 L 30.007259368896484 88.90615844726562 L 30.36473846435547 88.01827239990234 L 30.73366355895996 87.13911437988281 L 31.11400032043457 86.26899719238281 L 31.562742233276367 85.28321838378906 L 32.02590560913086 84.30560302734375 L 32.503326416015625 83.336181640625 L 32.99482727050781 82.3750228881836 L 33.500244140625 81.42215728759766 L 34.01940155029297 80.47764587402344 L 34.55213928222656 79.54151916503906 L 35.0982780456543 78.61383819580078 L 35.65765380859375 77.69464874267578 L 36.2300910949707 76.78398895263672 L 36.8154296875 75.88191986083984 L 37.413490295410156 74.98847961425781 L 38.02410888671875 74.10371398925781 L 38.64711380004883 73.22766876220703 L 39.2823371887207 72.36040496826172 L 39.92960739135742 71.501953125 L 40.58875274658203 70.65237426757812 L 41.259605407714844 69.81170654296875 L 41.94200134277344 68.9800033569336" fill="none" stroke="black" /><path d="M 41.94200134277344 68.9800033569336 L 42.54248046875 68.26659393310547 L 43.151390075683594 67.55997467041016 L 43.768619537353516 66.86016082763672 L 44.39406204223633 66.16719055175781 L 45.02760314941406 65.48108673095703 L 45.66913604736328 64.80188751220703 L 46.31855010986328 64.12962341308594 L 46.97573471069336 63.46430969238281 L 47.64058303833008 62.80598831176758 L 48.31298065185547 62.154685974121094 L 48.992820739746094 61.510433197021484 L 49.679996490478516 60.87325668334961 L 50.3743896484375 60.243186950683594 L 51.075897216796875 59.62025833129883 L 51.78440856933594 59.004493713378906 L 52.499813079833984 58.39592361450195 L 53.22200012207031 57.79458236694336 L 53.95085906982422 57.200496673583984 L 54.686283111572266 56.61369705200195 L 55.42816162109375 56.034210205078125 L 56.1763801574707 55.46207046508789 L 56.93083953857422 54.897300720214844 L 57.6914176940918 54.33993911743164 L 58.458011627197266 53.790008544921875 L 59.23051452636719 53.24754333496094 L 60.00880813598633 52.71256637573242 L 60.792789459228516 52.185115814208984 L 61.58234405517578 51.66521453857422 L 62.37736511230469 51.152896881103516 L 63.17774200439453 50.648189544677734 L 63.983367919921875 50.151123046875 L 64.79412841796875 49.66172790527344 L 65.60990905761719 49.180030822753906 L 66.43061828613281 48.7060661315918 L 67.2561264038086 48.23986053466797 L 68.08633422851562 47.78144073486328 L 68.92112731933594 47.330841064453125 L 69.7603988647461 46.888092041015625 L 70.60403442382812 46.453216552734375 L 71.45193481445312 46.026248931884766 L 72.3039779663086 45.60721969604492 L 73.16006469726562 45.19615936279297 L 74.02008056640625 44.7930908203125 L 74.8839111328125 44.39805221557617 L 75.75144958496094 44.01106643676758 L 76.62258911132812 43.63216781616211 L 77.49722290039062 43.261383056640625 L 78.37522888183594 42.89874267578125 L 79.25650787353516 42.544273376464844 L 80.14094543457031 42.19801330566406 L 81.02843475341797 41.859981536865234 L 81.91886901855469 41.530216217041016 L 82.81212615966797 41.208740234375 L 83.7081069946289 40.89558792114258 L 84.60669708251953 40.59078598022461 L 85.5077896118164 40.294368743896484 L 86.4112777709961 40.0063591003418 L 87.31704711914062 39.72679138183594 L 88.22498321533203 39.455692291259766 L 89.13497924804688 39.19309616088867 L 90.04693603515625 38.939029693603516 L 90.96073150634766 38.693519592285156 L 91.87625885009766 38.45659637451172 L 92.79341125488281 38.228294372558594 L 93.71207427978516 38.00864028930664 L 94.63214111328125 37.797664642333984 L 95.55350494384766 37.595394134521484 L 96.4760513305664 37.40186309814453 L 97.39966583251953 37.21709442138672 L 98.32424926757812 37.0411262512207 L 99.24968719482422 36.87398147583008 L 100.17587280273438 36.71569061279297 L 101.1026840209961 36.566287994384766 L 102.030029296875 36.42579650878906 L 102.9577865600586 36.29425048828125 L 103.88584899902344 36.17167663574219 L 104.8141098022461 36.058109283447266 L 105.74244689941406 35.953575134277344 L 106.67076873779297 35.85810089111328 L 107.59895324707031 35.77172088623047 L 108.52690124511719 35.694461822509766 L 109.4544906616211 35.6263542175293 L 110.3816146850586 35.56742858886719 L 111.30816650390625 35.5177116394043 L 112.23403930664062 35.477237701416016 L 113.15911865234375 35.4460334777832 L 114.08329010009766 35.42412567138672 L 115.00645446777344 35.41154861450195 L 115.92849731445312 35.40833282470703 L 116.84931182861328 35.41450500488281 L 117.7687759399414 35.430091857910156 L 118.68679809570312 35.45512771606445 L 119.6032485961914 35.48964309692383 L 120.51803588867188 35.53366470336914 L 121.43103790283203 35.587223052978516 L 122.34215545654297 35.65034484863281 L 123.25126647949219 35.72306442260742 L 124.15827178955078 35.80541229248047 L 125.06305694580078 35.89741134643555 L 125.96551513671875 35.99909591674805 L 126.86553192138672 36.110496520996094 L 127.76299285888672 36.23163986206055 L 128.65780639648438 36.36255645751953 L 129.54983520507812 36.50327682495117 L 130.43899536132812 36.65382766723633 L 131.32516479492188 36.81424331665039 L 132.208251953125 36.98455047607422 L 133.08810424804688 37.16477966308594 L 133.96466064453125 37.35496139526367 L 134.83778381347656 37.55512237548828 L 135.70736694335938 37.76529312133789 L 136.57330322265625 37.985504150390625 L 137.4354705810547 38.21578598022461 L 138.29379272460938 38.4561653137207 L 139.1481170654297 38.7066764831543 L 139.9983673095703 38.96734619140625 L 140.84442138671875 39.23820114135742 L 141.68617248535156 39.5192756652832 L 142.52349853515625 39.81060028076172 L 143.35630798339844 40.11219787597656 L 144.18447875976562 40.424102783203125 L 145.00790405273438 40.74634552001953 L 145.82647705078125 41.078956604003906 L 146.64007568359375 41.421958923339844 L 147.4486083984375 41.775390625 L 148.25196838378906 42.13927459716797 L 149.05001831054688 42.513641357421875 L 149.84266662597656 42.89852523803711 L 150.6298065185547 43.293949127197266 L 151.41131591796875 43.699951171875 L 152.1870880126953 44.116554260253906 L 152.95703125 44.54378890991211 L 153.72100830078125 44.981685638427734 L 154.4789276123047 45.430274963378906 L 155.23068237304688 45.88958740234375 L 155.9761505126953 46.359649658203125 L 156.71522521972656 46.840492248535156 L 157.4477996826172 47.33214569091797 L 158.17376708984375 47.83463668823242 L 158.89300537109375 48.347999572753906 L 159.72662353515625 48.9649543762207 L 160.54762268066406 49.59798812866211 L 161.3562774658203 50.24661636352539 L 162.1527862548828 50.910369873046875 L 162.93740844726562 51.588768005371094 L 163.7103729248047 52.28133773803711 L 164.47193908691406 52.987606048583984 L 165.22232055664062 53.70709228515625 L 165.96176147460938 54.43932342529297 L 166.6905059814453 55.18382263183594 L 167.40878295898438 55.94011688232422 L 168.11685180664062 56.707725524902344 L 168.81492614746094 57.486175537109375 L 169.50326538085938 58.27499008178711 L 170.18209838867188 59.07369613647461 L 170.85165405273438 59.881813049316406 L 171.51219177246094 60.69887161254883 L 172.16392517089844 61.524391174316406 L 172.80711364746094 62.35789489746094 L 173.44198608398438 63.19891357421875 L 174.06878662109375 64.04696655273438 L 174.68775939941406 64.90157318115234 L 175.2991180419922 65.76226806640625 L 175.9031219482422 66.62857055664062 L 176.5 67.5" fill="none" stroke="black" /><path d="M 166.5 167.5 L 165.8233184814453 168.24032592773438 L 165.141357421875 168.96958923339844 L 164.45420837402344 169.6878204345703 L 163.7619171142578 170.39505004882812 L 163.0645751953125 171.09129333496094 L 162.36224365234375 171.77659606933594 L 161.655029296875 172.4509735107422 L 160.9429931640625 173.11447143554688 L 160.2261962890625 173.76710510253906 L 159.50474548339844 174.40890502929688 L 158.7786865234375 175.03990173339844 L 158.04811096191406 175.66012573242188 L 157.31309509277344 176.2696075439453 L 156.57369995117188 176.86837768554688 L 155.8300323486328 177.45645141601562 L 155.08213806152344 178.03387451171875 L 154.3301239013672 178.60067749023438 L 153.57403564453125 179.15687561035156 L 152.81396484375 179.70249938964844 L 152.0499725341797 180.23757934570312 L 151.28216552734375 180.7621612548828 L 150.51058959960938 181.2762451171875 L 149.73533630371094 181.77989196777344 L 148.9564666748047 182.27310180664062 L 148.17408752441406 182.75592041015625 L 147.38824462890625 183.22837829589844 L 146.59902954101562 183.69049072265625 L 145.8065185546875 184.14230346679688 L 145.01077270507812 184.58383178710938 L 144.21188354492188 185.01510620117188 L 143.40992736816406 185.4361572265625 L 142.60498046875 185.84703063964844 L 141.79710388183594 186.24774169921875 L 140.98638916015625 186.6383056640625 L 140.17291259765625 187.01876831054688 L 139.3567352294922 187.38916015625 L 138.53794860839844 187.74949645996094 L 137.7166290283203 188.09982299804688 L 136.89283752441406 188.44017028808594 L 136.06666564941406 188.77053833007812 L 135.23818969726562 189.0909881591797 L 134.407470703125 189.4015350341797 L 133.57460021972656 189.70220947265625 L 132.73963928222656 189.9930419921875 L 131.90267944335938 190.27406311035156 L 131.0637969970703 190.54530334472656 L 130.22305297851562 190.80677795410156 L 129.3805389404297 191.05853271484375 L 128.53631591796875 191.3005828857422 L 127.69048309326172 191.532958984375 L 126.84309387207031 191.75570678710938 L 125.99423217773438 191.96884155273438 L 125.14397430419922 192.17239379882812 L 124.29240417480469 192.36639404296875 L 123.43958282470703 192.55087280273438 L 122.58560180664062 192.72586059570312 L 121.73052215576172 192.89138793945312 L 120.87443542480469 193.04747009277344 L 120.01741027832031 193.1941375732422 L 119.15951538085938 193.33143615722656 L 118.30084228515625 193.4593963623047 L 117.44145202636719 193.57801818847656 L 116.58143615722656 193.68736267089844 L 115.72085571289062 193.7874298095703 L 114.85979461669922 193.87828063964844 L 113.99833679199219 193.9599151611328 L 113.13654327392578 194.0323944091797 L 112.27449798583984 194.09571838378906 L 111.41227722167969 194.14991760253906 L 110.5499496459961 194.19503784179688 L 109.68760681152344 194.23109436035156 L 108.82530975341797 194.2581329345703 L 107.96314239501953 194.27615356445312 L 107.10118103027344 194.28521728515625 L 106.239501953125 194.28533935546875 L 105.378173828125 194.27655029296875 L 104.51728057861328 194.2588653564453 L 103.65689849853516 194.23233032226562 L 102.79710388183594 194.1969757080078 L 101.9379653930664 194.15283203125 L 101.0795669555664 194.0998992919922 L 100.22198486328125 194.03823852539062 L 99.36528778076172 193.96788024902344 L 98.50955963134766 193.88882446289062 L 97.65487670898438 193.80113220214844 L 96.80130767822266 193.70480346679688 L 95.94893646240234 193.59988403320312 L 95.09783172607422 193.4864044189453 L 94.24807739257812 193.36439514160156 L 93.39974212646484 193.23387145996094 L 92.55290985107422 193.09487915039062 L 91.70765686035156 192.9474334716797 L 90.86405181884766 192.79156494140625 L 90.02217102050781 192.6273193359375 L 89.18209838867188 192.4547119140625 L 88.34391021728516 192.2737579345703 L 87.5076675415039 192.0845184326172 L 86.67346954345703 191.88699340820312 L 85.84136962890625 191.6812286376953 L 85.01146697998047 191.46725463867188 L 84.1838150024414 191.24508666992188 L 83.35850524902344 191.0147705078125 L 82.53560638427734 190.7763214111328 L 81.71520233154297 190.52976989746094 L 80.89735412597656 190.275146484375 L 80.08216094970703 190.0124969482422 L 79.2696762084961 189.7418212890625 L 78.45999145507812 189.46316528320312 L 77.6531753540039 189.1765594482422 L 76.84930419921875 188.8820343017578 L 76.04845428466797 188.57960510253906 L 75.2507095336914 188.26931762695312 L 74.45613861083984 187.95118713378906 L 73.6648178100586 187.625244140625 L 72.87682342529297 187.29153442382812 L 72.09223937988281 186.9500732421875 L 71.31112670898438 186.6008758544922 L 70.53357696533203 186.24400329589844 L 69.75965881347656 185.87945556640625 L 68.98944854736328 185.5072784423828 L 68.2230224609375 185.12750244140625 L 67.46045684814453 184.74014282226562 L 66.70182800292969 184.34524536132812 L 65.94721221923828 183.9428253173828 L 65.19668579101562 183.5329132080078 L 64.45032501220703 183.1155548095703 L 63.70820999145508 182.6907501220703 L 62.97040939331055 182.25856018066406 L 62.23700714111328 181.81898498535156 L 61.50807189941406 181.3720703125 L 60.78368377685547 180.9178466796875 L 60.06391906738281 180.45632934570312 L 59.34885025024414 179.98756408691406 L 58.6385612487793 179.51156616210938 L 57.93312072753906 179.02838134765625 L 57.232608795166016 178.5380096435547 L 56.5370979309082 178.04051208496094 L 55.84667205810547 177.53590393066406 L 55.161399841308594 177.0242156982422 L 54.48135757446289 176.50546264648438 L 53.80662536621094 175.97970581054688 L 53.13727951049805 175.4469451904297 L 52.473392486572266 174.90721130371094 L 51.81504440307617 174.3605499267578 L 51.16230773925781 173.80697631835938 L 50.5152587890625 173.2465362548828 L 49.87397766113281 172.67922973632812 L 49.2385368347168 172.10511779785156 L 48.60901641845703 171.5242156982422 L 47.98548889160156 170.93653869628906 L 47.3680305480957 170.34214782714844 L 46.75672149658203 169.7410430908203 L 46.15163040161133 169.1332550048828 L 45.55284118652344 168.51882934570312 L 44.960426330566406 167.89779663085938 L 44.37446212768555 167.27015686035156 L 43.79502487182617 166.63597106933594 L 43.22219467163086 165.99526977539062 L 42.65604019165039 165.34805297851562 L 42.096641540527344 164.69436645507812 L 41.5440788269043 164.03424072265625 L 40.99842071533203 163.36769104003906 L 40.459747314453125 162.69476318359375 L 39.92813491821289 162.01548767089844 L 39.40365982055664 161.32989501953125 L 38.88639831542969 160.6379852294922 L 38.37642288208008 159.9398193359375 L 37.87381362915039 159.23541259765625 L 37.3786506652832 158.52479553222656 L 36.89099884033203 157.80799865722656 L 42.9640007019043 70.03099822998047 L 67.62362670898438 80.18932342529297 L 68.28168487548828 80.46129608154297 L 68.93402099609375 80.75314331054688 L 69.58015441894531 81.06634521484375 L 70.2196273803711 81.4023666381836 L 70.85197448730469 81.76268005371094 L 71.47672271728516 82.14876556396484 L 72.09342193603516 82.56209564208984 L 72.70159912109375 83.00414276123047 L 73.30078887939453 83.47637176513672 L 73.89051818847656 83.98026275634766" fill="none" stroke="black" /><path d="M 166.5 167.50100708007812 L 126.68807983398438 147.22105407714844 L 125.87566375732422 146.80470275878906 L 125.07280731201172 146.37049865722656 L 124.28007507324219 145.91737365722656 L 123.498046875 145.44430541992188 L 122.72726440429688 144.9502410888672 L 121.96830749511719 144.43409729003906 L 121.22174072265625 143.89486694335938 L 120.48812103271484 143.3314666748047 L 119.76802062988281 142.74285888671875 L 119.06199645996094 142.1280059814453 L 118.38063049316406 141.50119018554688 L 117.71746063232422 140.8627471923828 L 117.07251739501953 140.2130126953125 L 116.44584655761719 139.5522918701172 L 115.83747100830078 138.88092041015625 L 115.24744415283203 138.19921875 L 114.67578887939453 137.50750732421875 L 114.12254333496094 136.80613708496094 L 113.58775329589844 136.0954132080078 L 113.0714340209961 135.3756561279297 L 112.57363891601562 134.64720153808594 L 112.09439849853516 133.91036987304688 L 111.63375091552734 133.16549682617188 L 111.19171905517578 132.41290283203125 L 110.76835632324219 131.6529083251953 L 110.36369323730469 130.88583374023438 L 109.9777603149414 130.11203002929688 L 109.610595703125 129.331787109375 L 109.26223754882812 128.5454559326172 L 108.9327163696289 127.75335693359375 L 108.62207794189453 126.95581817626953 L 108.3303451538086 126.15315246582031 L 108.05756378173828 125.34569549560547 L 107.80376434326172 124.53377532958984 L 107.56898498535156 123.71770477294922 L 107.35325622558594 122.8978271484375 L 107.15662384033203 122.07445526123047 L 106.97911834716797 121.24791717529297 L 106.8207778930664 120.41854095458984 L 106.68163299560547 119.5866470336914 L 106.56172180175781 118.7525634765625 L 106.4610824584961 117.91661834716797 L 106.37974548339844 117.07913970947266 L 106.31775665283203 116.24044036865234 L 106.27513885498047 115.40086364746094 L 106.25193786621094 114.56071472167969 L 106.24818420410156 113.7203369140625 L 106.263916015625 112.88005065917969 L 106.29916381835938 112.04017639160156 L 106.35397338867188 111.2010498046875 L 106.42837524414062 110.36298370361328 L 106.52240753173828 109.52630615234375 L 106.63610076904297 108.69135284423828 L 106.76949310302734 107.85843658447266 L 106.92261505126953 107.02789306640625 L 107.09551239013672 106.20004272460938 L 107.28822326660156 105.37521362304688 L 107.50077056884766 104.55372619628906 L 107.73319244384766 103.73591613769531 L 107.98553466796875 102.9220962524414 L 108.25782775878906 102.11260223388672 L 108.55010223388672 101.30774688720703 L 108.8624038696289 100.50787353515625 L 109.19475555419922 99.71329498291016 L 109.54720306396484 98.9243392944336 L 109.91978454589844 98.1413345336914 L 110.3125228881836 97.36460876464844 L 110.72547149658203 96.59447479248047 L 111.15864562988281 95.8312759399414 L 111.61209869384766 95.07532501220703 L 112.08586120605469 94.32695007324219 L 112.57996368408203 93.58647918701172 L 113.09444427490234 92.85423278808594 L 113.62934875488281 92.13054656982422 L 114.1846923828125 91.41573333740234 L 114.76052856445312 90.71012878417969 L 115.35688781738281 90.01405334472656 L 115.97380828857422 89.32782745361328 L 116.61132049560547 88.65179443359375 L 117.26946258544922 87.98625946044922 L 117.94827270507812 87.33155822753906 L 118.64778137207031 86.68801879882812 L 119.36802673339844 86.05596160888672 L 120.10904693603516 85.43571472167969 L 120.87088012695312 84.82759857177734 L 121.65354919433594 84.23194885253906 L 122.45710754394531 83.64907836914062 L 123.28157806396484 83.0793228149414 L 124.12699890136719 82.52300262451172 L 124.96530151367188 82.00286102294922 L 125.80599975585938 81.5165023803711 L 126.64891052246094 81.06275177001953 L 127.49386596679688 80.64044952392578 L 128.34068298339844 80.2484359741211 L 129.18919372558594 79.88555145263672 L 130.03921508789062 79.5506362915039 L 130.89056396484375 79.24252319335938 L 131.74307250976562 78.96005249023438 L 132.5965576171875 78.70207214355469 L 133.4508514404297 78.4674072265625 L 176.5 67.5 L 177.14212036132812 68.46159362792969 L 177.76699829101562 69.41981506347656 L 178.374755859375 70.37492370605469 L 178.96551513671875 71.32718658447266 L 179.53939819335938 72.27686309814453 L 180.0965118408203 73.2242202758789 L 180.63697814941406 74.16950988769531 L 181.1609344482422 75.11299896240234 L 181.6685028076172 76.05494689941406 L 182.15977478027344 76.9956283569336 L 182.6348876953125 77.93528747558594 L 183.09396362304688 78.87419128417969 L 183.53712463378906 79.81260681152344 L 183.9644775390625 80.75079345703125 L 184.37615966796875 81.68901062011719 L 184.77227783203125 82.62752532958984 L 185.15296936035156 83.56659698486328 L 185.51832580566406 84.50648498535156 L 185.8684844970703 85.44744873046875 L 186.2035675048828 86.38976287841797 L 186.52369689941406 87.33367156982422 L 186.82899475097656 88.27944946289062 L 187.11956787109375 89.22735595703125 L 187.39553833007812 90.17765808105469 L 187.6570281982422 91.13059997558594 L 187.90415954589844 92.08646392822266 L 188.13706970214844 93.04549407958984 L 188.35585021972656 94.00796508789062 L 188.56063842773438 94.97413635253906 L 188.7515411376953 95.94426727294922 L 188.92869567871094 96.91862487792969 L 189.0922088623047 97.8974609375 L 189.24220275878906 98.88104248046875 L 189.37879943847656 99.86963653564453 L 189.50213623046875 100.86349487304688 L 189.6123046875 101.8628921508789 L 189.7094268798828 102.86808013916016 L 189.79364013671875 103.87931823730469 L 189.8650665283203 104.89688110351562 L 189.92381286621094 105.9210205078125 L 189.97000122070312 106.9520034790039 L 190.00428771972656 107.96941375732422 L 190.02821350097656 108.97830963134766 L 190.04171752929688 109.97892761230469 L 190.0447540283203 110.97150421142578 L 190.03724670410156 111.95626831054688 L 190.01913452148438 112.93345642089844 L 189.99037170410156 113.9032974243164 L 189.9508819580078 114.86603546142578 L 189.90061950683594 115.82189178466797 L 189.8395233154297 116.77110290527344 L 189.7675323486328 117.71391296386719 L 189.6845703125 118.65054321289062 L 189.59060668945312 119.58123779296875 L 189.48556518554688 120.5062255859375 L 189.36936950683594 121.42573547363281 L 189.2419891357422 122.34001159667969 L 189.10336303710938 123.24928283691406 L 188.9534149169922 124.1537857055664 L 188.79208374023438 125.05374145507812 L 188.61932373046875 125.94940185546875 L 188.43507385253906 126.84099578857422 L 188.2392578125 127.72874450683594 L 188.03182983398438 128.61289978027344 L 187.81272888183594 129.49368286132812 L 187.58189392089844 130.371337890625 L 187.3392791748047 131.24607849121094 L 187.0847930908203 132.1181640625 L 186.8184051513672 132.98782348632812 L 186.5400390625 133.8552703857422 L 186.2496337890625 134.72076416015625 L 185.9471435546875 135.5845184326172 L 185.63250732421875 136.44677734375 L 185.30564880371094 137.30776977539062 L 184.96652221679688 138.16773986816406 L 184.6150665283203 139.02691650390625 L 184.251220703125 139.88552856445312 L 183.8749237060547 140.7438201904297 L 183.48611450195312 141.6020050048828 L 183.08473205566406 142.46034240722656 L 182.67071533203125 143.3190460205078 L 182.2440185546875 144.17835998535156 L 181.80458068847656 145.03851318359375 L 181.35231018066406 145.8997344970703 L 180.88719177246094 146.7622833251953 L 180.4091339111328 147.62635803222656 L 179.9180908203125 148.49221801757812 L 179.41400146484375 149.36009216308594 L 178.89678955078125 150.23020935058594 L 178.36642456054688 151.10279846191406 L 177.8228302001953 151.97811889648438 L 177.2659454345703 152.8563690185547 L 176.6957244873047 153.73780822753906 L 176.11207580566406 154.62265014648438 L 175.51498413085938 155.5111541748047 L 174.9043426513672 156.40353393554688 L 174.28013610839844 157.30001831054688 L 173.64227294921875 158.20086669921875 L 172.99070739746094 159.10629272460938 L 172.32537841796875 160.01654052734375 L 171.64620971679688 160.9318389892578 L 170.9531707763672 161.8524169921875 L 170.24618530273438 162.7785186767578 L 169.5251922607422 163.7103729248047 L 168.79014587402344 164.64822387695312 L 168.0409698486328 165.59228515625 L 167.27760314941406 166.5428009033203" fill="none" stroke="black" /><path d="M 13.244999885559082 227.7550048828125 L 13.163928985595703 226.75363159179688 L 13.08298397064209 225.75216674804688 L 13.002167701721191 224.75062561035156 L 12.921480178833008 223.74899291992188 L 12.840924263000488 222.74728393554688 L 12.760501861572266 221.74549865722656 L 12.680213928222656 220.74363708496094 L 12.60006332397461 219.74168395996094 L 12.520050048828125 218.73965454101562 L 12.440177917480469 217.737548828125 L 12.360447883605957 216.73536682128906 L 12.280861854553223 215.7331085205078 L 12.201420783996582 214.7307586669922 L 12.122127532958984 213.7283477783203 L 12.042983055114746 212.72586059570312 L 11.9639892578125 211.72329711914062 L 11.885149002075195 210.72064208984375 L 11.806462287902832 209.7179412841797 L 11.727932929992676 208.71514892578125 L 11.649560928344727 207.7122802734375 L 11.571348190307617 206.7093505859375 L 11.493297576904297 205.7063446044922 L 11.415410041809082 204.70327758789062 L 11.337687492370605 203.70013427734375 L 11.2601318359375 202.69691467285156 L 11.182744979858398 201.69363403320312 L 11.105527877807617 200.69027709960938 L 11.028483390808105 199.68685913085938 L 10.951613426208496 198.68338012695312 L 10.874917984008789 197.67982482910156 L 10.79840087890625 196.67620849609375 L 10.722063064575195 195.6725311279297 L 10.645905494689941 194.6687774658203 L 10.569931030273438 193.6649627685547 L 10.494141578674316 192.6610870361328 L 10.418538093566895 191.6571502685547 L 10.343122482299805 190.6531524658203 L 10.267897605895996 189.6490936279297 L 10.192863464355469 188.6449737548828 L 10.118022918701172 187.6407928466797 L 10.043377876281738 186.6365509033203 L 9.968929290771484 185.6322479248047 L 9.89468002319336 184.62789916992188 L 9.82063102722168 183.62347412109375 L 9.746784210205078 182.61900329589844 L 9.673141479492188 181.61448669433594 L 9.59970474243164 180.60989379882812 L 9.526474952697754 179.60525512695312 L 9.453454971313477 178.60055541992188 L 9.380645751953125 177.59580993652344 L 9.308050155639648 176.59100341796875 L 9.235669136047363 175.58615112304688 L 9.163503646850586 174.5812530517578 L 9.091557502746582 173.5762939453125 L 9.019830703735352 172.5712890625 L 8.948326110839844 171.56622314453125 L 8.877044677734375 170.5611114501953 L 8.805988311767578 169.5559539794922 L 8.735158920288086 168.55075073242188 L 8.664559364318848 167.54550170898438 L 8.594189643859863 166.5402069091797 L 8.524052619934082 165.53485107421875 L 8.45414924621582 164.5294647216797 L 8.384482383728027 163.52403259277344 L 8.31505298614502 162.51853942871094 L 8.24586296081543 161.5130157470703 L 8.17691421508789 160.5074462890625 L 8.108208656311035 159.5018310546875 L 8.039748191833496 158.49618530273438 L 7.971533298492432 157.490478515625 L 7.903567314147949 156.48475646972656 L 7.835851669311523 155.47897338867188 L 7.768387794494629 154.47315979003906 L 7.70117712020874 153.46730041503906 L 7.634222030639648 152.46141052246094 L 7.567524433135986 151.45547485351562 L 7.5010857582092285 150.4495086669922 L 7.43490743637085 149.44349670410156 L 7.368991851806641 148.4374542236328 L 7.303340435028076 147.43138122558594 L 7.237955093383789 146.42527770996094 L 7.172837734222412 145.41912841796875 L 7.10798978805542 144.41294860839844 L 7.0434136390686035 143.40673828125 L 6.979110240936279 142.40049743652344 L 6.91508150100708 141.39422607421875 L 6.851329803466797 140.38792419433594 L 6.787856578826904 139.38157653808594 L 6.724663257598877 138.37521362304688 L 6.661752223968506 137.3688201904297 L 6.599124431610107 136.36239624023438 L 6.536782741546631 135.35595703125 L 6.474728107452393 134.34947204589844 L 6.412962436676025 133.3429718017578 L 6.351487636566162 132.33644104003906 L 6.2903056144714355 131.3298797607422 L 6.2294182777404785 130.32330322265625 L 6.168826580047607 129.3166961669922 L 6.108532905578613 128.31007385253906 L 6.048539161682129 127.30342102050781 L 5.988846778869629 126.2967529296875 L 5.929457664489746 125.29005432128906 L 5.870373249053955 124.28334045410156 L 5.811595916748047 123.27660369873047 L 5.753127098083496 122.26985168457031 L 5.6949687004089355 121.26307678222656 L 5.63712215423584 120.25628662109375 L 5.57958984375 119.24947357177734 L 5.522372722625732 118.24264526367188 L 5.465473175048828 117.23580169677734 L 5.40889310836792 116.22894287109375 L 5.352633953094482 115.2220687866211 L 5.29669713973999 114.21517944335938 L 5.241085052490234 113.2082748413086 L 5.1857991218566895 112.20135498046875 L 5.130841255187988 111.19442749023438 L 5.076213359832764 110.18748474121094 L 5.021917343139648 109.18052673339844 L 4.967954158782959 108.1735610961914 L 4.914326190948486 107.16658782958984 L 4.861035346984863 106.15960693359375 L 4.8080830574035645 105.1526107788086 L 4.755471229553223 104.1456069946289 L 4.7032012939453125 103.13859558105469 L 4.651275634765625 102.13157653808594 L 4.599695682525635 101.12454986572266 L 4.548463344573975 100.11752319335938 L 4.497580528259277 99.11048889160156 L 4.447048187255859 98.10344696044922 L 4.39686918258667 97.09639739990234 L 4.347044467926025 96.08935546875 L 4.297576427459717 95.0822982788086 L 4.248466491699219 94.07524871826172 L 4.199716567993164 93.06819152832031 L 4.151328086853027 92.0611343383789 L 4.103302955627441 91.0540771484375 L 4.055643558502197 90.0470199584961 L 4.008350849151611 89.03997039794922 L 3.9614269733428955 88.03291320800781 L 3.9148736000061035 87.02586364746094 L 3.868692636489868 86.01881408691406 L 3.822885751724243 85.01176452636719 L 3.7774548530578613 84.00472259521484 L 3.7324013710021973 82.99768829345703 L 3.687727451324463 81.99065399169922 L 3.643434762954712 80.98362731933594 L 3.599524974822998 79.97660827636719 L 3.555999994277954 78.96959686279297 L 3.512861490249634 77.96259307861328 L 3.470111131668091 76.9555892944336 L 3.427750825881958 75.94860076904297 L 3.385782480239868 74.9416275024414 L 3.344207525253296 73.93465423583984 L 3.303028106689453 72.92770385742188 L 3.2622458934783936 71.9207534790039 L 3.221862316131592 70.913818359375 L 3.1818795204162598 69.90689849853516 L 3.142299175262451 68.89999389648438 L 3.103123188018799 67.89309692382812 L 3.0643529891967773 66.88621520996094 L 3.0259907245635986 65.87934875488281 L 2.9880378246307373 64.87250518798828 L 2.950496196746826 63.86566925048828 L 2.913367748260498 62.858856201171875 L 2.8766541481018066 61.85205841064453 L 2.8403573036193848 60.845279693603516 L 2.804478645324707 59.83851623535156 L 2.7690200805664062 58.8317756652832 L 2.7339837551116943 57.82505416870117 L 2.699370861053467 56.818355560302734 L 2.6651835441589355 55.811676025390625 L 2.6314234733581543 54.80501937866211 L 2.5980923175811768 53.79838562011719 L 2.5651919841766357 52.79177474975586 L 2.532724380493164 51.785186767578125 L 2.5006909370422363 50.77862548828125 L 2.4690935611724854 49.77208709716797 L 2.437934160232544 48.76557540893555 L 2.407214403152466 47.759090423583984 L 2.3769359588623047 46.75263214111328 L 2.3471007347106934 45.74620056152344 L 2.3177106380462646 44.73979949951172 L 2.288767099380493 43.73342514038086 L 2.2602720260620117 42.727081298828125 L 2.232227325439453 41.72076416015625 L 2.204634666442871 40.714481353759766 L 2.1774959564208984 39.708229064941406 L 2.1508126258850098 38.70201110839844 L 2.124586820602417 37.695823669433594 L 2.0988199710845947 36.689666748046875 L 2.073514223098755 35.68354797363281 L 2.048671007156372 34.677459716796875 L 2.024292230606079 33.671409606933594 L 2.0003795623779297 32.6653938293457 L 1.9769351482391357 31.659414291381836 L 1.9539602994918823 30.653470993041992 L 1.9314570426940918 29.647565841674805 L 1.9094271659851074 28.641700744628906 L 1.8878722190856934 27.63587188720703 L 1.866794228553772 26.630083084106445 L 1.846194863319397 25.62433433532715 L 1.826075792312622 24.618627548217773 L 1.80643892288208 23.612960815429688 L 1.7872860431671143 22.607336044311523 L 1.7686188220977783 21.601755142211914 L 1.7504390478134155 20.596216201782227 L 1.7327485084533691 19.59071922302246 L 1.715549111366272 18.585269927978516 L 1.6988424062728882 17.579864501953125 L 1.682630181312561 16.57450294494629 L 1.666914463043213 15.569189071655273 L 1.6516966819763184 14.563922882080078 L 1.6369788646697998 13.558703422546387 L 1.622762680053711 12.553531646728516 L 1.609049916267395 11.548408508300781 L 1.5958423614501953 10.543335914611816 L 1.583141803741455 9.538311958312988 L 1.570949912071228 8.533339500427246 L 1.5592684745788574 7.528418064117432 L 1.548099398612976 6.523548603057861 L 1.5374443531036377 5.518731594085693 L 1.5273051261901855 4.513967514038086 L 1.5176833868026733 3.5092570781707764 L 1.5085811614990234 2.504601001739502 L 1.5 1.5" fill="none" stroke="black" /><path d="M 224.64700317382812 215.67999267578125 L 223.65184020996094 215.89007568359375 L 222.65635681152344 216.0983123779297 L 221.66053771972656 216.30471801757812 L 220.66439819335938 216.5093231201172 L 219.6679229736328 216.7121124267578 L 218.671142578125 216.9131317138672 L 217.67404174804688 217.11239624023438 L 216.6766357421875 217.30990600585938 L 215.67892456054688 217.50570678710938 L 214.68089294433594 217.6997833251953 L 213.6825714111328 217.8921661376953 L 212.68394470214844 218.08287048339844 L 211.68502807617188 218.27191162109375 L 210.68582153320312 218.45932006835938 L 209.6863250732422 218.6450958251953 L 208.68655395507812 218.8292694091797 L 207.68649291992188 219.0118408203125 L 206.6861572265625 219.19284057617188 L 205.685546875 219.37228393554688 L 204.68466186523438 219.55018615722656 L 203.6835174560547 219.7265625 L 202.68209838867188 219.90142822265625 L 201.680419921875 220.07481384277344 L 200.67848205566406 220.2467041015625 L 199.67630004882812 220.4171600341797 L 198.6738739013672 220.58615112304688 L 197.6711883544922 220.7537384033203 L 196.6682586669922 220.91990661621094 L 195.6650848388672 221.08470153808594 L 194.66168212890625 221.24810791015625 L 193.65805053710938 221.41015625 L 192.6541748046875 221.5708770751953 L 191.65008544921875 221.7302703857422 L 190.64576721191406 221.8883514404297 L 189.6412353515625 222.04515075683594 L 188.636474609375 222.20068359375 L 187.63150024414062 222.35494995117188 L 186.62632751464844 222.5079803466797 L 185.62094116210938 222.65980529785156 L 184.6153564453125 222.81040954589844 L 183.6095733642578 222.95982360839844 L 182.6035919189453 223.1080780029297 L 181.597412109375 223.2551727294922 L 180.59104919433594 223.40113830566406 L 179.58450317382812 223.5459747314453 L 178.5777587890625 223.68971252441406 L 177.5708465576172 223.83236694335938 L 176.5637664794922 223.9739532470703 L 175.55650329589844 224.11447143554688 L 174.549072265625 224.25396728515625 L 173.54147338867188 224.39244079589844 L 172.53372192382812 224.52992248535156 L 171.5258026123047 224.66641235351562 L 170.51773071289062 224.8019256591797 L 169.50950622558594 224.93649291992188 L 168.50112915039062 225.07012939453125 L 167.4925994873047 225.20285034179688 L 166.48394775390625 225.3346710205078 L 165.4751434326172 225.46560668945312 L 164.46621704101562 225.59567260742188 L 163.45713806152344 225.7248992919922 L 162.4479522705078 225.853271484375 L 161.43862915039062 225.98085021972656 L 160.42918395996094 226.1076202392578 L 159.4196319580078 226.2335968017578 L 158.4099578857422 226.35882568359375 L 157.40016174316406 226.48329162597656 L 156.39027404785156 226.60704040527344 L 155.38026428222656 226.73007202148438 L 154.37017822265625 226.85240173339844 L 153.35997009277344 226.9740447998047 L 152.3496856689453 227.09503173828125 L 151.33929443359375 227.21536254882812 L 150.32882690429688 227.33506774902344 L 149.31826782226562 227.45416259765625 L 148.30763244628906 227.57266235351562 L 147.2969207763672 227.69056701660156 L 146.2861328125 227.80792236328125 L 145.2752685546875 227.9247283935547 L 144.26434326171875 228.041015625 L 143.2533416748047 228.15676879882812 L 142.24229431152344 228.2720489501953 L 141.23118591308594 228.3868408203125 L 140.22003173828125 228.50115966796875 L 139.2088165283203 228.61505126953125 L 138.1975555419922 228.728515625 L 137.18624877929688 228.841552734375 L 136.17491149902344 228.95420837402344 L 135.1635284423828 229.0664825439453 L 134.15211486816406 229.1783905029297 L 133.1406707763672 229.2899627685547 L 132.1291961669922 229.40121459960938 L 131.11769104003906 229.51214599609375 L 130.10618591308594 229.62278747558594 L 129.0946502685547 229.733154296875 L 128.08309936523438 229.84326171875 L 127.07154846191406 229.953125 L 126.05998992919922 230.06275939941406 L 125.04843139648438 230.1721954345703 L 124.036865234375 230.28143310546875 L 123.02530670166016 230.3905029296875 L 122.01375579833984 230.49940490722656 L 121.00221252441406 230.60816955566406 L 119.99068450927734 230.71681213378906 L 118.97917175292969 230.82534790039062 L 117.96768188476562 230.9337921142578 L 116.95621490478516 231.0421600341797 L 115.94477844238281 231.15048217773438 L 113.9219970703125 231.36700439453125 L 112.89098358154297 231.477294921875 L 111.85978698730469 231.58734130859375 L 110.82843017578125 231.69692993164062 L 109.7968978881836 231.8057861328125 L 108.76519012451172 231.91368103027344 L 107.73330688476562 232.02035522460938 L 106.70125579833984 232.12557983398438 L 105.66902160644531 232.22911071777344 L 104.63660430908203 232.33070373535156 L 103.60401153564453 232.4300994873047 L 102.57124328613281 232.52706909179688 L 101.53829193115234 232.62135314941406 L 100.5051498413086 232.7127227783203 L 99.47183227539062 232.80091857910156 L 98.43832397460938 232.88571166992188 L 97.40463256835938 232.9668426513672 L 96.3707504272461 233.04408264160156 L 95.33667755126953 233.11717224121094 L 94.30241394042969 233.1858673095703 L 93.2679672241211 233.24993896484375 L 92.23332214355469 233.30914306640625 L 91.19847869873047 233.3632049560547 L 90.16344451904297 233.4119110107422 L 89.12821197509766 233.4550018310547 L 88.09278869628906 233.4922332763672 L 87.05715942382812 233.52337646484375 L 86.02133178710938 233.5481719970703 L 84.98530578613281 233.56637573242188 L 83.9490737915039 233.57774353027344 L 82.91263580322266 233.58203125 L 81.8759994506836 233.57899475097656 L 80.82250213623047 233.56826782226562 L 79.7692642211914 233.55006408691406 L 78.71627044677734 233.52468872070312 L 77.66352844238281 233.4924774169922 L 76.61102294921875 233.45376586914062 L 75.55874633789062 233.4088592529297 L 74.50670623779297 233.3581085205078 L 73.45488739013672 233.30181884765625 L 72.40328979492188 233.24032592773438 L 71.3519058227539 233.1739501953125 L 70.30072784423828 233.10302734375 L 69.24974822998047 233.0278778076172 L 68.198974609375 232.94882202148438 L 67.14839172363281 232.86619567871094 L 66.09799194335938 232.7803192138672 L 65.04777526855469 232.69151306152344 L 63.99774169921875 232.60012817382812 L 62.9478759765625 232.50645446777344 L 61.89817810058594 232.4108428955078 L 60.84864044189453 232.31361389160156 L 59.799259185791016 232.21507263183594 L 58.75002670288086 232.11558532714844 L 57.70094299316406 232.0154571533203 L 56.652000427246094 231.9149932861328 L 13.244999885559082 227.7550048828125" fill="none" stroke="black" /><path d="M 216.77699279785156 2.1070001125335693 L 216.97830200195312 3.0879251956939697 L 217.1772918701172 4.069148540496826 L 217.37399291992188 5.0506672859191895 L 217.5684051513672 6.032480239868164 L 217.76052856445312 7.014585018157959 L 217.95040893554688 7.996979713439941 L 218.13803100585938 8.979662895202637 L 218.32339477539062 9.962632179260254 L 218.5065460205078 10.94588565826416 L 218.68746948242188 11.929421424865723 L 218.86618041992188 12.913236618041992 L 219.0426788330078 13.897331237792969 L 219.21701049804688 14.881702423095703 L 219.38914489746094 15.866347312927246 L 219.5591278076172 16.85126495361328 L 219.72694396972656 17.83645248413086 L 219.8926239013672 18.821910858154297 L 220.05616760253906 19.807634353637695 L 220.2175750732422 20.793622970581055 L 220.3768768310547 21.77987289428711 L 220.53408813476562 22.766386032104492 L 220.68919372558594 23.753156661987305 L 220.84222412109375 24.740184783935547 L 220.99317932128906 25.727468490600586 L 221.14207458496094 26.715003967285156 L 221.28892517089844 27.702791213989258 L 221.43374633789062 28.690826416015625 L 221.57652282714844 29.67911148071289 L 221.71730041503906 30.667640686035156 L 221.85606384277344 31.65641212463379 L 221.99282836914062 32.64542770385742 L 222.1276092529297 33.63467788696289 L 222.2604217529297 34.624168395996094 L 222.3912811279297 35.613895416259766 L 222.52017211914062 36.60385513305664 L 222.6471405029297 37.59404754638672 L 222.7721710205078 38.584468841552734 L 222.89527893066406 39.57511901855469 L 223.0164794921875 40.56599426269531 L 223.1357879638672 41.557090759277344 L 223.25320434570312 42.54841232299805 L 223.36874389648438 43.539955139160156 L 223.482421875 44.53171157836914 L 223.59423828125 45.52368927001953 L 223.7042236328125 46.51587677001953 L 223.81236267089844 47.508277893066406 L 223.91868591308594 48.500892639160156 L 224.02320861816406 49.493709564208984 L 224.12591552734375 50.48673629760742 L 224.22683715820312 51.4799690246582 L 224.32598876953125 52.47340393066406 L 224.42337036132812 53.467037200927734 L 224.51898193359375 54.46086883544922 L 224.61285400390625 55.454898834228516 L 224.7050018310547 56.44912338256836 L 224.79541015625 57.443538665771484 L 224.8841094970703 58.438148498535156 L 224.9711151123047 59.432945251464844 L 225.05641174316406 60.42792892456055 L 225.14002990722656 61.423095703125 L 225.22198486328125 62.41844940185547 L 225.30227661132812 63.41398239135742 L 225.38092041015625 64.4096908569336 L 225.4579315185547 65.40557861328125 L 225.53330993652344 66.40164947509766 L 225.60707092285156 67.39788818359375 L 225.67921447753906 68.39429473876953 L 225.74977111816406 69.390869140625 L 225.81875610351562 70.38761901855469 L 225.8861541748047 71.38452911376953 L 225.95199584960938 72.38160705566406 L 226.0162811279297 73.37884521484375 L 226.0790252685547 74.37623596191406 L 226.14024353027344 75.37379455566406 L 226.19993591308594 76.37150573730469 L 226.25811767578125 77.36936950683594 L 226.31480407714844 78.36738586425781 L 226.37001037597656 79.36554718017578 L 226.42373657226562 80.36386108398438 L 226.47598266601562 81.3623275756836 L 226.52679443359375 82.36093139648438 L 226.57615661621094 83.35968017578125 L 226.62408447265625 84.35856628417969 L 226.6705780029297 85.35758972167969 L 226.71566772460938 86.35675048828125 L 226.75936889648438 87.35604858398438 L 226.80166625976562 88.35547637939453 L 226.84259033203125 89.35503387451172 L 226.88214111328125 90.35472106933594 L 226.9203338623047 91.35453796386719 L 226.95718383789062 92.35447692871094 L 226.99269104003906 93.35453796386719 L 227.02688598632812 94.35472106933594 L 227.05975341796875 95.35501861572266 L 227.09132385253906 96.35543823242188 L 227.12159729003906 97.35597229003906 L 227.1505889892578 98.35662078857422 L 227.17831420898438 99.35737609863281 L 227.20477294921875 100.35824584960938 L 227.22998046875 101.35922241210938 L 227.2539520263672 102.36029815673828 L 227.27670288085938 103.36148071289062 L 227.29823303222656 104.36276245117188 L 227.31854248046875 105.36415100097656 L 227.33767700195312 106.36563110351562 L 227.35560607910156 107.36720275878906 L 227.37237548828125 108.3688735961914 L 227.38796997070312 109.37063598632812 L 227.4024200439453 110.37248992919922 L 227.4157257080078 111.37442779541016 L 227.4279022216797 112.37644958496094 L 227.43896484375 113.3785629272461 L 227.44891357421875 114.38075256347656 L 227.45774841308594 115.38301849365234 L 227.46551513671875 116.38536834716797 L 227.47219848632812 117.3877944946289 L 227.47781372070312 118.39029693603516 L 227.4823760986328 119.39286804199219 L 227.4858856201172 120.3955078125 L 227.48837280273438 121.3982162475586 L 227.4898223876953 122.40099334716797 L 227.49026489257812 123.4038314819336 L 227.48971557617188 124.40673828125 L 227.48817443847656 125.40969848632812 L 227.4856414794922 126.4127197265625 L 227.48214721679688 127.41580200195312 L 227.47769165039062 128.41893005371094 L 227.4722900390625 129.422119140625 L 227.4659423828125 130.42535400390625 L 227.45867919921875 131.4286346435547 L 227.45050048828125 132.43197631835938 L 227.44142150878906 133.4353485107422 L 227.4314422607422 134.4387664794922 L 227.4205780029297 135.44223022460938 L 227.40884399414062 136.44573974609375 L 227.39625549316406 137.44927978515625 L 227.3828125 138.45285034179688 L 227.36851501464844 139.45645141601562 L 227.35340881347656 140.46009826660156 L 227.3374786376953 141.46376037597656 L 227.32073974609375 142.4674530029297 L 227.30320739746094 143.47117614746094 L 227.28488159179688 144.47491455078125 L 227.26577758789062 145.4786834716797 L 227.2459259033203 146.4824676513672 L 227.22531127929688 147.48626708984375 L 227.20394897460938 148.49008178710938 L 227.18186950683594 149.49392700195312 L 227.1590576171875 150.49777221679688 L 227.1355438232422 151.50161743164062 L 227.11131286621094 152.50547790527344 L 227.08641052246094 153.5093536376953 L 227.06082153320312 154.5132293701172 L 227.03457641601562 155.51710510253906 L 227.00765991210938 156.52098083496094 L 226.98011779785156 157.52484130859375 L 226.95191955566406 158.52871704101562 L 226.92311096191406 159.53257751464844 L 226.89369201660156 160.53643798828125 L 226.86366271972656 161.540283203125 L 226.83303833007812 162.5441131591797 L 226.8018341064453 163.54794311523438 L 226.7700653076172 164.55174255371094 L 226.7377471923828 165.5555419921875 L 226.70486450195312 166.55931091308594 L 226.67144775390625 167.5630645751953 L 226.63751220703125 168.56678771972656 L 226.60305786132812 169.5704803466797 L 226.56808471679688 170.57415771484375 L 226.5326385498047 171.5778045654297 L 226.49668884277344 172.5814208984375 L 226.4602813720703 173.58499145507812 L 226.42340087890625 174.5885467529297 L 226.38607788085938 175.59205627441406 L 226.3483123779297 176.59552001953125 L 226.31011962890625 177.5989532470703 L 226.27149963378906 178.6023406982422 L 226.23248291015625 179.60568237304688 L 226.19305419921875 180.60897827148438 L 226.15325927734375 181.6122283935547 L 226.11306762695312 182.6154327392578 L 226.07252502441406 183.6185760498047 L 226.03163146972656 184.62167358398438 L 225.99038696289062 185.6247100830078 L 225.9488067626953 186.627685546875 L 225.9069061279297 187.63059997558594 L 225.8647003173828 188.63345336914062 L 225.8221893310547 189.63624572753906 L 225.77938842773438 190.63897705078125 L 225.73631286621094 191.64163208007812 L 225.69297790527344 192.6442108154297 L 225.6493682861328 193.646728515625 L 225.60552978515625 194.649169921875 L 225.5614471435547 195.6515350341797 L 225.5171356201172 196.65382385253906 L 225.4726104736328 197.65603637695312 L 225.42788696289062 198.65817260742188 L 225.3829803466797 199.66021728515625 L 225.33787536621094 200.66217041015625 L 225.2926025390625 201.66404724121094 L 225.24717712402344 202.66583251953125 L 225.20159912109375 203.6675262451172 L 225.1558837890625 204.6691131591797 L 225.11004638671875 205.67062377929688 L 225.0640869140625 206.67202758789062 L 225.0180206298828 207.67333984375 L 224.97186279296875 208.67454528808594 L 224.92562866210938 209.67564392089844 L 224.87930297851562 210.67665100097656 L 224.8329315185547 211.6775360107422 L 224.7864990234375 212.67831420898438 L 224.74002075195312 213.6790008544922 L 224.6935272216797 214.67955017089844 L 224.64700317382812 215.67999267578125" fill="none" stroke="black" /><path d="M -890.8294067382812 0.9181591272354126 L 1109.16943359375 3.064840793609619" fill="none" stroke="black" /></svg>