<?xml version="1.0" encoding="utf-8" ?>
<svg baseProfile="tiny" height="168" version="1.2" width="185" xmlns="http://www.w3.org/2000/svg" xmlns:ev="http://www.w3.org/2001/xml-events" xmlns:xlink="http://www.w3.org/1999/xlink"><defs /><path d="M 81.08000183105469 18.079999923706055 L 83.48500061035156 17.016000747680664 L 121.64199829101562 4.886000156402588 L 123.55999755859375 4.519999980926514" fill="none" stroke="black" /><path d="M 55.63999938964844 100.04000091552734 L 54.554481506347656 100.65898132324219 L 53.42085266113281 101.14085388183594 L 52.252498626708984 101.52149963378906 L 51.06281661987305 101.8368148803711 L 17.765111923217773 110.54059600830078 L 16.59139060974121 110.84577178955078 L 15.416460990905762 111.14631652832031 L 14.239999771118164 111.44100189208984" fill="none" stroke="black" /><path d="M 114.91999816894531 152.96099853515625 L 48.72800064086914 27.697999954223633 L 42.45899963378906 15.189000129699707 L 41.82962417602539 13.897000312805176 L 41.720001220703125 12.4399995803833 L 84.74099731445312 93.36799621582031 L 96.58399963378906 115.66400146484375 L 114.0 149.09800720214844 L 114.57962799072266 150.34774780273438 L 114.88770294189453 151.6212615966797" fill="none" stroke="black" /><path d="M 116.0009994506836 85.04100036621094 L 118.39800262451172 84.06999969482422 L 149.5240020751953 75.57599639892578 L 150.76699829101562 76.26599884033203 L 157.5240020751953 88.63800048828125 L 157.8800048828125 89.95999908447266" fill="none" stroke="black" /><path d="M 136.52000427246094 53.0 L 135.5167236328125 53.5357666015625 L 134.4835205078125 53.979000091552734 L 133.426513671875 54.34873580932617 L 132.35186767578125 54.66400146484375 L 104.36000061035156 62.720001220703125 L 105.75712585449219 61.95024871826172 L 107.24500274658203 61.41899871826172" fill="none" stroke="black" /><path d="M 125.0 33.439998626708984 L 123.87275695800781 34.05074691772461 L 122.69737243652344 34.511295318603516 L 121.48787689208984 34.8641242980957 L 93.79900360107422 42.31999969482422 L 96.44300079345703 41.01499938964844" fill="none" stroke="black" /><path d="M 92.4800033569336 41.720001220703125 L 91.34111022949219 42.21479415893555 L 90.1769027709961 42.62299728393555 L 88.99366760253906 42.96577835083008 L 61.638999938964844 50.2400016784668 L 63.098751068115234 49.55125045776367 L 64.63500213623047 49.02299880981445" fill="none" stroke="black" /><path d="M 127.04000091552734 108.19999694824219 L 125.95267486572266 108.71066284179688 L 124.82970428466797 109.0986328125 L 123.68162536621094 109.3968734741211 L 96.68000030517578 115.76000213623047 L 98.2406234741211 114.94312286376953 L 99.9219970703125 114.45099639892578" fill="none" stroke="black" /><path d="M 49.880001068115234 28.160999298095703 L 51.404624938964844 27.36662483215332 L 52.999000549316406 26.716999053955078 L 79.5260009765625 17.968000411987305 L 80.9749984741211 17.988000869750977 L 93.80599975585938 42.43899917602539 L 104.4271240234375 63.1505012512207 L 113.0951156616211 80.23123168945312 L 113.6222915649414 81.28011322021484 L 114.11184692382812 82.34674072265625 L 114.54925537109375 83.43780517578125 L 114.91999816894531 84.55999755859375" fill="none" stroke="black" /><path d="M 103.04000091552734 62.119998931884766 L 102.0245132446289 62.623172760009766 L 100.98796844482422 63.05945587158203 L 99.9338607788086 63.439903259277344 L 98.86566162109375 63.77556610107422 L 72.91999816894531 71.36000061035156 L 75.31600189208984 70.14700317382812" fill="none" stroke="black" /><path d="M 84.79900360107422 93.32099914550781 L 86.1551284790039 92.65237426757812 L 87.56300354003906 92.13600158691406 L 114.43800354003906 84.7959976196289 L 116.0009994506836 85.13700103759766 L 128.3990020751953 108.90499877929688 L 137.83999633789062 127.87999725341797" fill="none" stroke="black" /><path d="M 71.5999984741211 70.76000213623047 L 70.4901123046875 71.26456451416016 L 69.3580322265625 71.6982650756836 L 68.2083740234375 72.07573699951172 L 44.46799850463867 78.93900299072266 L 2.0 64.63999938964844 L 30.683000564575195 57.07400131225586" fill="none" stroke="black" /><path d="M 48.560001373291016 27.799999237060547 L 47.56300735473633 28.27338409423828 L 46.55178451538086 28.705875396728516 L 45.528411865234375 29.103445053100586 L 44.49497604370117 29.47205924987793 L 20.358999252319336 37.52000045776367 L 23.006000518798828 36.22200012207031" fill="none" stroke="black" /><path d="M 60.31999969482422 49.63999938964844 L 59.29052734375 50.13096618652344 L 58.238807678222656 50.547428131103516 L 57.168888092041016 50.902740478515625 L 56.08482360839844 51.21025085449219 L 32.119998931884766 57.68000030517578 L 33.52000045776367 56.91362380981445 L 35.00400161743164 56.37900161743164" fill="none" stroke="black" /><path d="M 95.12000274658203 115.16000366210938 L 93.99088287353516 115.66887664794922 L 92.82740783691406 116.052001953125 L 91.63987731933594 116.34612274169922 L 68.23999786376953 121.4000015258789 L 69.31700134277344 121.14800262451172" fill="none" stroke="black" /><path d="M 83.36000061035156 92.83999633789062 L 82.17561340332031 93.4124526977539 L 80.95588684082031 93.87629699707031 L 79.71050262451172 94.26074981689453 L 57.08000183105469 100.63999938964844 L 59.48099899291992 99.56500244140625" fill="none" stroke="black" /><path d="M 42.79999923706055 78.44000244140625 L 41.68717575073242 79.11074829101562 L 40.51540756225586 79.61563110351562 L 39.302249908447266 80.00212860107422 L 21.440000534057617 84.802001953125 L 19.038999557495117 85.03900146484375" fill="none" stroke="black" /><path d="M 128.36000061035156 108.80000305175781 L 131.0 107.72000122070312 L 135.3980712890625 106.7510757446289 L 136.49758911132812 106.50894927978516 L 148.69564819335938 103.82670593261719 L 149.82691955566406 103.61077880859375 L 150.96737670898438 103.44316864013672 L 152.1199951171875 103.33999633789062" fill="none" stroke="black" /><path d="M 149.36000061035156 75.44100189208984 L 125.14399719238281 33.31800079345703 L 118.12200164794922 20.26300048828125 L 117.48540496826172 19.02414894104004 L 117.11592864990234 17.757518768310547 L 117.08000183105469 16.399999618530273 L 138.0229949951172 53.80400085449219 L 148.42799377441406 72.90499877929688" fill="none" stroke="black" /><path d="M 61.7599983215332 110.72000122070312 L 55.57899856567383 99.85399627685547 L 45.423500061035156 81.74187469482422 L 44.823875427246094 80.45023345947266 L 44.47999954223633 79.04000091552734 L 57.15700149536133 100.85900115966797 L 61.41299819946289 109.2699966430664" fill="none" stroke="black" /><path d="M 30.56100082397461 56.95899963378906 L 19.198999404907227 37.04999923706055 L 13.219096183776855 25.952869415283203 L 12.680000305175781 24.920000076293945 L 20.21500015258789 37.43000030517578 L 29.736000061035156 54.54999923706055" fill="none" stroke="black" /><path d="M 150.67999267578125 76.04000091552734 L 152.25250244140625 75.28937530517578 L 153.91200256347656 74.68499755859375 L 164.67550659179688 71.84024047851562 L 165.9821014404297 71.52543640136719 L 167.31259155273438 71.34095764160156 L 168.67999267578125 71.36000061035156" fill="none" stroke="black" /><path d="M 80.23999786376953 17.600000381469727 L 74.5739974975586 6.334000110626221 L 73.92874145507812 4.943259239196777 L 73.53459167480469 3.5180740356445312 L 73.5199966430664 2.0 L 79.80300903320312 16.536666870117188" fill="none" stroke="black" /><path d="M 137.9600067138672 53.60100173950195 L 140.5989990234375 52.39699935913086 L 141.81674194335938 52.049434661865234 L 149.7445068359375 49.83250045776367 L 151.63999938964844 49.63999938964844" fill="none" stroke="black" /><path d="M 126.80000305175781 34.040000915527344 L 128.3471221923828 33.14962387084961 L 130.04200744628906 32.611000061035156 L 131.96437072753906 32.12412643432617 L 137.265869140625 30.803125381469727 L 138.3964385986328 30.53437042236328 L 139.544677734375 30.3571720123291 L 140.72000122070312 30.31999969482422" fill="none" stroke="black" /><path d="M 19.040000915527344 37.15999984741211 L 18.01148223876953 37.64811706542969 L 16.968002319335938 38.09306716918945 L 15.911853790283203 38.5014533996582 L 14.84533405303955 38.8798942565918 L 13.770736694335938 39.23500442504883 L 12.690354347229004 39.573394775390625 L 7.2820000648498535 41.24599838256836 L 5.599999904632568 41.36000061035156" fill="none" stroke="black" /></svg>